# xmcd
#
# Track frame offsets:
#	150
#	17311
#	29233
#	42278
#	57321
#	73546
#	87880
#	104943
#	122226
#	138094
#	152381
#	167097
#	182969
#	195250
#
# Disc length: 2762 seconds
#
# Revision: 0
# Processed by: cddbd v1.5.2PL0 Copyright (c) Steve Scherf et al.
# Submitted via: EasyCDDAExtractor 4.6.0.1
#
DISCID=bb0ac80e
DTITLE=Daryle Singletary - Hit Collection
DYEAR=2003
DGENRE=Country
TTITLE0=A Love That Never Died
TTITLE1=A Thing Called Love
TTITLE2=After The Fire Is Gone
TTITLE3=Dumaflache
TTITLE4=I Knew I Loved You
TTITLE5=I'd Love To Lay You Down
TTITLE6=Make Up And Faded Blue Jeans
TTITLE7=My Baby's Lovin' 
TTITLE8=Old Violin (With Johnny Paycheck)
TTITLE9=Ordinary Heroes
TTITLE10=That's What I Get For Thinkin'
TTITLE11=That's Where You're Wrong
TTITLE12=That's Why I Sing This Way
TTITLE13=The Real Deal
EXTD=
EXTT0=
EXTT1=
EXTT2=
EXTT3=
EXTT4=
EXTT5=
EXTT6=
EXTT7=
EXTT8=
EXTT9=
EXTT10=
EXTT11=
EXTT12=
EXTT13=
PLAYORDER=
